<mxfile host="app.diagrams.net" modified="2024-05-05T21:40:46.652Z" agent="Mozilla/5.0 (Macintosh; Intel Mac OS X 10_15_7) AppleWebKit/537.36 (KHTML, like Gecko) Chrome/121.0.0.0 Safari/537.36" etag="gNFMaY3HJMmD7R2Gzin-" version="24.3.1" type="github">
  <diagram name="Page-1" id="VHwMAUtKE23u8JFN5kcc">
    <mxGraphModel dx="837" dy="1328" grid="1" gridSize="10" guides="1" tooltips="1" connect="1" arrows="1" fold="1" page="1" pageScale="1" pageWidth="850" pageHeight="1100" math="0" shadow="0">
      <root>
        <mxCell id="0" />
        <mxCell id="1" parent="0" />
        <mxCell id="Td5k5PPyeU9ZumbcJ6N0-2" value="" style="swimlane;startSize=0;" vertex="1" parent="1">
          <mxGeometry x="200" y="107" width="440" height="560" as="geometry" />
        </mxCell>
        <mxCell id="Td5k5PPyeU9ZumbcJ6N0-4" value="Banking App" style="text;html=1;align=center;verticalAlign=middle;resizable=0;points=[];autosize=1;strokeColor=none;fillColor=none;" vertex="1" parent="Td5k5PPyeU9ZumbcJ6N0-2">
          <mxGeometry x="180" width="90" height="30" as="geometry" />
        </mxCell>
        <mxCell id="Td5k5PPyeU9ZumbcJ6N0-7" value="Log in" style="ellipse;whiteSpace=wrap;html=1;" vertex="1" parent="Td5k5PPyeU9ZumbcJ6N0-2">
          <mxGeometry x="70" y="40" width="95" height="60" as="geometry" />
        </mxCell>
        <mxCell id="Td5k5PPyeU9ZumbcJ6N0-10" value="Check&lt;div&gt;balance&lt;/div&gt;" style="ellipse;whiteSpace=wrap;html=1;" vertex="1" parent="Td5k5PPyeU9ZumbcJ6N0-2">
          <mxGeometry x="70" y="120" width="95" height="60" as="geometry" />
        </mxCell>
        <mxCell id="Td5k5PPyeU9ZumbcJ6N0-11" value="Make&lt;div&gt;payments&lt;/div&gt;" style="ellipse;whiteSpace=wrap;html=1;" vertex="1" parent="Td5k5PPyeU9ZumbcJ6N0-2">
          <mxGeometry x="90" y="403" width="95" height="60" as="geometry" />
        </mxCell>
        <mxCell id="Td5k5PPyeU9ZumbcJ6N0-12" value="Transfer&lt;div&gt;funds&lt;/div&gt;" style="ellipse;whiteSpace=wrap;html=1;" vertex="1" parent="Td5k5PPyeU9ZumbcJ6N0-2">
          <mxGeometry x="50" y="203" width="95" height="60" as="geometry" />
        </mxCell>
        <mxCell id="Td5k5PPyeU9ZumbcJ6N0-31" value="Verify&lt;div&gt;password&lt;/div&gt;" style="ellipse;whiteSpace=wrap;html=1;" vertex="1" parent="Td5k5PPyeU9ZumbcJ6N0-2">
          <mxGeometry x="310" y="40" width="95" height="60" as="geometry" />
        </mxCell>
        <mxCell id="Td5k5PPyeU9ZumbcJ6N0-32" value="Display&lt;div&gt;login error&lt;/div&gt;" style="ellipse;whiteSpace=wrap;html=1;" vertex="1" parent="Td5k5PPyeU9ZumbcJ6N0-2">
          <mxGeometry x="310" y="120" width="95" height="60" as="geometry" />
        </mxCell>
        <mxCell id="Td5k5PPyeU9ZumbcJ6N0-33" value="Verify&lt;div&gt;sufficient&lt;/div&gt;&lt;div&gt;funds&lt;/div&gt;" style="ellipse;whiteSpace=wrap;html=1;" vertex="1" parent="Td5k5PPyeU9ZumbcJ6N0-2">
          <mxGeometry x="330" y="320" width="95" height="60" as="geometry" />
        </mxCell>
        <mxCell id="Td5k5PPyeU9ZumbcJ6N0-36" value="&amp;lt;&amp;lt;include&amp;gt;&amp;gt;" style="endArrow=open;endSize=12;dashed=1;html=1;rounded=0;entryX=0;entryY=0.5;entryDx=0;entryDy=0;exitX=0.987;exitY=0.337;exitDx=0;exitDy=0;exitPerimeter=0;" edge="1" parent="Td5k5PPyeU9ZumbcJ6N0-2" source="Td5k5PPyeU9ZumbcJ6N0-7" target="Td5k5PPyeU9ZumbcJ6N0-31">
          <mxGeometry width="160" relative="1" as="geometry">
            <mxPoint x="130" y="220" as="sourcePoint" />
            <mxPoint x="290" y="220" as="targetPoint" />
          </mxGeometry>
        </mxCell>
        <mxCell id="Td5k5PPyeU9ZumbcJ6N0-38" value="&amp;lt;&amp;lt;extends&amp;gt;&amp;gt;" style="endArrow=open;endSize=12;dashed=1;html=1;rounded=0;entryX=1.013;entryY=0.723;entryDx=0;entryDy=0;exitX=0;exitY=0.5;exitDx=0;exitDy=0;entryPerimeter=0;" edge="1" parent="Td5k5PPyeU9ZumbcJ6N0-2" source="Td5k5PPyeU9ZumbcJ6N0-32" target="Td5k5PPyeU9ZumbcJ6N0-7">
          <mxGeometry width="160" relative="1" as="geometry">
            <mxPoint x="190" y="220" as="sourcePoint" />
            <mxPoint x="350" y="220" as="targetPoint" />
          </mxGeometry>
        </mxCell>
        <mxCell id="Td5k5PPyeU9ZumbcJ6N0-41" value="&amp;lt;&amp;lt;include&amp;gt;&amp;gt;" style="endArrow=open;endSize=12;dashed=1;html=1;rounded=0;exitX=1;exitY=0;exitDx=0;exitDy=0;entryX=0.023;entryY=0.717;entryDx=0;entryDy=0;entryPerimeter=0;" edge="1" parent="Td5k5PPyeU9ZumbcJ6N0-2" source="Td5k5PPyeU9ZumbcJ6N0-11" target="Td5k5PPyeU9ZumbcJ6N0-33">
          <mxGeometry width="160" relative="1" as="geometry">
            <mxPoint x="170" y="315" as="sourcePoint" />
            <mxPoint x="280" y="340" as="targetPoint" />
          </mxGeometry>
        </mxCell>
        <mxCell id="Td5k5PPyeU9ZumbcJ6N0-40" value="&amp;lt;&amp;lt;include&amp;gt;&amp;gt;" style="endArrow=open;endSize=12;dashed=1;html=1;rounded=0;entryX=0.036;entryY=0.177;entryDx=0;entryDy=0;entryPerimeter=0;exitX=0.979;exitY=0.61;exitDx=0;exitDy=0;exitPerimeter=0;" edge="1" parent="Td5k5PPyeU9ZumbcJ6N0-2" source="Td5k5PPyeU9ZumbcJ6N0-12" target="Td5k5PPyeU9ZumbcJ6N0-33">
          <mxGeometry width="160" relative="1" as="geometry">
            <mxPoint x="180" y="290" as="sourcePoint" />
            <mxPoint x="350" y="240" as="targetPoint" />
          </mxGeometry>
        </mxCell>
        <mxCell id="Td5k5PPyeU9ZumbcJ6N0-42" value="Verify&lt;div&gt;recipient&lt;/div&gt;&lt;div&gt;exists&lt;/div&gt;" style="ellipse;whiteSpace=wrap;html=1;" vertex="1" parent="Td5k5PPyeU9ZumbcJ6N0-2">
          <mxGeometry x="159.99999999999997" y="303" width="95" height="60" as="geometry" />
        </mxCell>
        <mxCell id="Td5k5PPyeU9ZumbcJ6N0-43" value="&amp;lt;&amp;lt;include&amp;gt;&amp;gt;" style="endArrow=open;endSize=12;dashed=1;html=1;rounded=0;entryX=0.036;entryY=0.177;entryDx=0;entryDy=0;entryPerimeter=0;exitX=0.415;exitY=1.017;exitDx=0;exitDy=0;exitPerimeter=0;" edge="1" target="Td5k5PPyeU9ZumbcJ6N0-42" parent="Td5k5PPyeU9ZumbcJ6N0-2" source="Td5k5PPyeU9ZumbcJ6N0-12">
          <mxGeometry width="160" relative="1" as="geometry">
            <mxPoint x="-68.21000000000001" y="238.14" as="sourcePoint" />
            <mxPoint x="168.78999999999996" y="231.14" as="targetPoint" />
          </mxGeometry>
        </mxCell>
        <mxCell id="Td5k5PPyeU9ZumbcJ6N0-44" value="&amp;lt;&amp;lt;include&amp;gt;&amp;gt;" style="endArrow=open;endSize=12;dashed=1;html=1;rounded=0;exitX=0.5;exitY=0;exitDx=0;exitDy=0;entryX=0.023;entryY=0.717;entryDx=0;entryDy=0;entryPerimeter=0;" edge="1" target="Td5k5PPyeU9ZumbcJ6N0-42" parent="Td5k5PPyeU9ZumbcJ6N0-2" source="Td5k5PPyeU9ZumbcJ6N0-11">
          <mxGeometry width="160" relative="1" as="geometry">
            <mxPoint x="-80.21000000000001" y="430.14" as="sourcePoint" />
            <mxPoint x="98.78999999999996" y="331.14" as="targetPoint" />
          </mxGeometry>
        </mxCell>
        <mxCell id="Td5k5PPyeU9ZumbcJ6N0-5" value="Customer" style="shape=umlActor;verticalLabelPosition=bottom;verticalAlign=top;html=1;" vertex="1" parent="1">
          <mxGeometry x="60" y="150" width="110" height="237" as="geometry" />
        </mxCell>
        <mxCell id="Td5k5PPyeU9ZumbcJ6N0-9" value="Bank" style="shape=umlActor;verticalLabelPosition=bottom;verticalAlign=top;html=1;" vertex="1" parent="1">
          <mxGeometry x="650" y="250" width="110" height="230" as="geometry" />
        </mxCell>
        <mxCell id="Td5k5PPyeU9ZumbcJ6N0-16" value="" style="endArrow=none;html=1;rounded=0;entryX=0;entryY=0.5;entryDx=0;entryDy=0;exitX=0.5;exitY=0.5;exitDx=0;exitDy=0;exitPerimeter=0;" edge="1" parent="1" source="Td5k5PPyeU9ZumbcJ6N0-5" target="Td5k5PPyeU9ZumbcJ6N0-7">
          <mxGeometry width="50" height="50" relative="1" as="geometry">
            <mxPoint x="400" y="317" as="sourcePoint" />
            <mxPoint x="490" y="277" as="targetPoint" />
          </mxGeometry>
        </mxCell>
        <mxCell id="Td5k5PPyeU9ZumbcJ6N0-17" value="" style="endArrow=none;html=1;rounded=0;exitX=0.5;exitY=0.5;exitDx=0;exitDy=0;exitPerimeter=0;entryX=0;entryY=0.5;entryDx=0;entryDy=0;" edge="1" parent="1" source="Td5k5PPyeU9ZumbcJ6N0-5" target="Td5k5PPyeU9ZumbcJ6N0-10">
          <mxGeometry width="50" height="50" relative="1" as="geometry">
            <mxPoint x="410" y="347" as="sourcePoint" />
            <mxPoint x="500" y="307" as="targetPoint" />
          </mxGeometry>
        </mxCell>
        <mxCell id="Td5k5PPyeU9ZumbcJ6N0-19" value="" style="endArrow=none;html=1;rounded=0;exitX=0;exitY=0.5;exitDx=0;exitDy=0;entryX=0.5;entryY=0.5;entryDx=0;entryDy=0;entryPerimeter=0;" edge="1" parent="1" source="Td5k5PPyeU9ZumbcJ6N0-12" target="Td5k5PPyeU9ZumbcJ6N0-5">
          <mxGeometry width="50" height="50" relative="1" as="geometry">
            <mxPoint x="425" y="427" as="sourcePoint" />
            <mxPoint x="515" y="387" as="targetPoint" />
          </mxGeometry>
        </mxCell>
        <mxCell id="Td5k5PPyeU9ZumbcJ6N0-18" value="" style="endArrow=none;html=1;rounded=0;exitX=0;exitY=0.5;exitDx=0;exitDy=0;entryX=0.5;entryY=0.5;entryDx=0;entryDy=0;entryPerimeter=0;" edge="1" parent="1" source="Td5k5PPyeU9ZumbcJ6N0-11" target="Td5k5PPyeU9ZumbcJ6N0-5">
          <mxGeometry width="50" height="50" relative="1" as="geometry">
            <mxPoint x="420" y="387" as="sourcePoint" />
            <mxPoint x="510" y="347" as="targetPoint" />
          </mxGeometry>
        </mxCell>
        <mxCell id="Td5k5PPyeU9ZumbcJ6N0-30" value="" style="endArrow=none;html=1;rounded=0;entryX=1;entryY=0.5;entryDx=0;entryDy=0;exitX=0.5;exitY=0.5;exitDx=0;exitDy=0;exitPerimeter=0;" edge="1" parent="1" source="Td5k5PPyeU9ZumbcJ6N0-9" target="Td5k5PPyeU9ZumbcJ6N0-11">
          <mxGeometry width="50" height="50" relative="1" as="geometry">
            <mxPoint x="450" y="497" as="sourcePoint" />
            <mxPoint x="620" y="377" as="targetPoint" />
            <Array as="points">
              <mxPoint x="590" y="537" />
            </Array>
          </mxGeometry>
        </mxCell>
        <mxCell id="Td5k5PPyeU9ZumbcJ6N0-21" value="" style="endArrow=none;html=1;rounded=0;entryX=0.5;entryY=0.5;entryDx=0;entryDy=0;exitX=0.954;exitY=0.223;exitDx=0;exitDy=0;entryPerimeter=0;exitPerimeter=0;" edge="1" parent="1" source="Td5k5PPyeU9ZumbcJ6N0-12" target="Td5k5PPyeU9ZumbcJ6N0-9">
          <mxGeometry width="50" height="50" relative="1" as="geometry">
            <mxPoint x="400" y="427" as="sourcePoint" />
            <mxPoint x="570" y="307" as="targetPoint" />
          </mxGeometry>
        </mxCell>
        <mxCell id="Td5k5PPyeU9ZumbcJ6N0-20" value="" style="endArrow=none;html=1;rounded=0;entryX=0.5;entryY=0.5;entryDx=0;entryDy=0;exitX=1;exitY=0.5;exitDx=0;exitDy=0;entryPerimeter=0;" edge="1" parent="1" source="Td5k5PPyeU9ZumbcJ6N0-10" target="Td5k5PPyeU9ZumbcJ6N0-9">
          <mxGeometry width="50" height="50" relative="1" as="geometry">
            <mxPoint x="380" y="367" as="sourcePoint" />
            <mxPoint x="550" y="247" as="targetPoint" />
          </mxGeometry>
        </mxCell>
        <mxCell id="Td5k5PPyeU9ZumbcJ6N0-39" value="&lt;h1 style=&quot;margin-top: 0px;&quot;&gt;Use Case Diagram&lt;/h1&gt;&lt;p&gt;This UML use case diagram shows the basic high-level interaction between actors, the customer and the bank.&lt;/p&gt;" style="text;html=1;whiteSpace=wrap;overflow=hidden;rounded=0;" vertex="1" parent="1">
          <mxGeometry x="200" y="7" width="390" height="80" as="geometry" />
        </mxCell>
      </root>
    </mxGraphModel>
  </diagram>
</mxfile>
